<svg width="125" height="109" viewBox="0 0 125 109" fill="none" xmlns="http://www.w3.org/2000/svg">
<g id="undraw_message_sent_re_q2kl 1" clip-path="url(#clip0_926_202)">
<path id="Vector" d="M6.03131 37.1437L0.0041255 33.7614C-0.0771747 30.1426 0.729355 26.5588 2.35368 23.321C3.74328 29.6051 11.0562 32.5948 14.4304 38.0815C15.4696 39.8008 16.1071 41.7311 16.2958 43.7292C16.4845 45.7274 16.2194 47.7423 15.5203 49.6245L15.9167 54.4967C12.8017 53.5671 9.92591 51.9757 7.48759 49.8321C5.04926 47.6885 3.10633 45.0437 1.79268 42.08C1.07225 40.41 0.565759 38.6563 0.285155 36.8603C3.09529 37.1582 6.03131 37.1437 6.03131 37.1437Z" fill="#F2F2F2"/>
<path id="Vector_2" d="M114.38 98.6778L114.565 94.5374C116.492 93.5113 118.641 92.9693 120.825 92.9585C117.819 95.4077 118.194 100.129 116.156 103.422C115.512 104.445 114.646 105.31 113.621 105.953C112.596 106.597 111.439 107.002 110.236 107.139L107.72 108.674C107.375 106.757 107.451 104.787 107.943 102.902C108.435 101.016 109.332 99.2593 110.571 97.7523C111.275 96.9137 112.082 96.1668 112.973 95.5291C113.575 97.1122 114.38 98.6778 114.38 98.6778Z" fill="#E6E6E6"/>
<path id="Vector_3" d="M107.897 106.543L105.619 106.543L104.535 97.7878L107.898 97.788L107.897 106.543Z" fill="#FFB6B6"/>
<path id="Vector_4" d="M108.478 108.744L101.132 108.744V108.651C101.132 107.896 101.434 107.171 101.97 106.637C102.506 106.103 103.233 105.802 103.992 105.802H103.992L105.334 104.788L107.837 105.803L108.479 105.803L108.478 108.744Z" fill="#2F2E41"/>
<path id="Vector_5" d="M97.3127 106.543L95.0345 106.543L93.9507 97.7878L97.3133 97.788L97.3127 106.543Z" fill="#FFB6B6"/>
<path id="Vector_6" d="M97.8939 108.744L90.5479 108.744V108.651C90.5479 107.896 90.8492 107.171 91.3854 106.637C91.9216 106.103 92.6488 105.802 93.4071 105.802H93.4073L94.7492 104.788L97.2528 105.803L97.8941 105.803L97.8939 108.744Z" fill="#2F2E41"/>
<path id="Vector_7" d="M96.3269 58.6768L111.146 59.0459C113.96 60.5689 114.003 63.8654 113.081 67.7792C113.081 67.7792 113.392 70.1055 112.769 70.7258C112.147 71.3462 111.835 71.3462 112.147 72.4317C112.458 73.5173 110.813 75.2904 111.013 75.4895C111.213 75.6885 111.68 76.7741 111.68 76.7741L110.123 85.6139C110.123 85.6139 109.034 100.967 108.722 101.277C108.411 101.588 108.1 101.277 108.411 102.053C108.722 102.828 109.034 102.518 108.722 102.828C108.447 103.124 108.187 103.435 107.944 103.759H104.181C104.181 103.759 103.897 102.208 103.897 102.053C103.897 101.898 103.586 100.967 103.586 100.812C103.586 100.657 103.861 100.383 103.861 100.383C103.956 100.068 104.02 99.7439 104.053 99.4164C104.053 99.1062 104.987 87.1647 104.987 87.1647L103.119 71.6563L98.605 86.8546C98.605 86.8546 98.605 100.192 98.2937 100.502C97.9824 100.812 97.9824 100.657 98.138 101.277C98.2937 101.898 98.9163 101.743 98.4493 102.208C97.9824 102.673 97.8267 101.898 97.9824 102.673L98.138 103.449L93.4684 103.515C93.4684 103.515 92.8458 102.208 93.1571 101.743C93.4685 101.277 93.4498 101.404 93.07 100.643C92.6902 99.8816 92.5345 99.7265 92.6902 99.5714C92.8458 99.4164 92.8458 98.5915 92.8458 98.5915L93.6241 83.7529C93.6241 83.7529 93.7797 68.0894 93.7797 67.6241C93.7915 67.3847 93.7472 67.1459 93.6505 66.9265V66.2949L94.2467 64.0572L96.3269 58.6768Z" fill="#69687F"/>
<path id="Vector_8" d="M105.229 27.976C107.772 27.976 109.833 25.9221 109.833 23.3885C109.833 20.8549 107.772 18.801 105.229 18.801C102.686 18.801 100.625 20.8549 100.625 23.3885C100.625 25.9221 102.686 27.976 105.229 27.976Z" fill="#FFB6B6"/>
<path id="Vector_9" d="M102.927 31.008C101.935 31.5955 101.341 32.6751 101.001 33.7736C100.37 35.8074 99.9904 37.9102 99.8702 40.0355L99.5104 46.3982L95.0547 59.9462C98.9163 63.2018 113.432 60.6861 113.432 60.6861C113.432 60.6861 113.877 60.5381 113.432 60.0942C112.986 59.6502 112.552 60.0436 112.998 59.5996C113.444 59.1557 113.136 59.6502 112.988 59.2063C112.839 58.7623 112.988 59.0583 113.136 58.9103C113.285 58.7623 111.987 57.4305 111.987 57.4305L113.175 49.6538L114.66 33.9676C112.878 31.7479 109.293 30.4393 109.293 30.4393L108.367 28.7783L103.736 29.1474L102.927 31.008Z" fill="#010230"/>
<path id="Vector_10" d="M102.295 20.6963C102.473 20.6976 102.651 20.7208 102.823 20.7653C103.163 20.8467 103.509 20.9044 103.857 20.9379C104.923 21.0379 105.924 21.4908 106.701 22.2243C107.479 22.9579 107.987 23.9298 108.144 24.9849C108.412 24.7525 109.021 24.325 109.52 24.7223C109.527 24.7286 109.532 24.7318 109.549 24.7235C109.881 24.5669 110.469 22.639 110.487 20.9415C110.496 20.0405 110.354 18.89 109.623 18.5256L109.584 18.5064L109.574 18.4647C109.525 18.262 108.979 17.9161 108.03 17.6468C106.306 17.1575 103.736 16.2042 102.288 17.6071C102.179 18.08 101.823 19.0921 101.463 19.2068C101.064 19.3338 100.72 19.4434 100.665 19.9305C100.62 20.6238 100.623 21.3194 100.675 22.0122C100.81 21.5883 101.076 21.2172 101.433 20.9513C101.688 20.7806 101.989 20.6916 102.295 20.6963Z" fill="#2F2E41"/>
<path id="Vector_11" d="M93.7253 46.044L101.246 41.2448L97.4583 36.2275L93.7177 40.812L82.063 41.5242C81.7564 41.2223 81.3683 41.0157 80.946 40.9298C80.5237 40.8438 80.0854 40.8822 79.6846 41.0401C79.2837 41.198 78.9377 41.4688 78.6886 41.8193C78.4396 42.1698 78.2982 42.5849 78.2819 43.0141C78.2655 43.4432 78.3748 43.8678 78.5965 44.2362C78.8182 44.6045 79.1426 44.9006 79.5302 45.0884C79.9179 45.2762 80.352 45.3475 80.7796 45.2937C81.2073 45.2399 81.61 45.0633 81.9386 44.7854L93.7253 46.044Z" fill="#FFB6B6"/>
<path id="Vector_12" d="M108.227 34.5462C108.663 37.1783 100.42 42.2046 100.42 42.2046C100.42 41.5868 95.4996 46.2507 95.2776 45.7383C94.6464 44.2821 94.2026 40.833 93.3207 40.2809C92.8163 39.9652 96.3584 36.9993 96.3584 36.9993C96.3584 36.9993 98.2125 35.1383 100.646 32.7908C101.321 32.1145 102.157 31.6194 103.077 31.3517C103.996 31.084 104.968 31.0523 105.903 31.2597C105.903 31.2597 107.79 31.9141 108.227 34.5462Z" fill="#010230"/>
<path id="Vector_13" d="M123.729 47.3037L118.754 39.9133L113.8 43.793L118.479 47.422L119.441 59.0165C119.144 59.3283 118.945 59.7192 118.868 60.1417C118.791 60.5642 118.838 61 119.005 61.3959C119.172 61.7919 119.451 62.1308 119.808 62.3715C120.165 62.6122 120.585 62.7442 121.016 62.7514C121.447 62.7586 121.87 62.6407 122.235 62.4121C122.6 62.1835 122.891 61.8541 123.071 61.4639C123.251 61.0738 123.313 60.6399 123.25 60.215C123.187 59.7902 123.002 59.3928 122.716 59.0713L123.729 47.3037Z" fill="#FFB6B6"/>
<path id="Vector_14" d="M111.885 33.1015C114.517 32.6109 119.735 40.7159 119.735 40.7159C119.115 40.7291 123.899 45.5313 123.39 45.7634C121.942 46.423 118.49 46.9381 117.955 47.8283C117.649 48.3374 114.598 44.8718 114.598 44.8718C114.598 44.8718 112.691 43.0643 110.284 40.6903C109.591 40.0317 109.076 39.2091 108.788 38.2992C108.5 37.3892 108.448 36.4213 108.636 35.4858C108.636 35.4858 109.253 33.592 111.885 33.1015Z" fill="#010230"/>
<path id="Vector_15" d="M125 108.78C125 108.809 124.995 108.838 124.983 108.865C124.972 108.891 124.956 108.916 124.936 108.936C124.915 108.956 124.891 108.973 124.864 108.984C124.837 108.995 124.809 109 124.78 109H72.8601C72.8016 109 72.7455 108.977 72.7042 108.936C72.6629 108.895 72.6396 108.839 72.6396 108.78C72.6396 108.722 72.6629 108.666 72.7042 108.625C72.7455 108.584 72.8016 108.561 72.8601 108.561H124.78C124.809 108.561 124.837 108.566 124.864 108.577C124.891 108.588 124.915 108.605 124.936 108.625C124.956 108.645 124.972 108.67 124.983 108.696C124.995 108.723 125 108.752 125 108.78Z" fill="#010230"/>
<path id="Vector_16" d="M76.9023 42.2256H13.8909C12.9065 42.2267 11.9626 42.6168 11.2665 43.3104C10.5704 44.004 10.1788 44.9443 10.1777 45.9252V85.0125C10.1789 85.9934 10.5704 86.9337 11.2665 87.6273C11.9626 88.3209 12.9065 88.711 13.8909 88.7121H76.9023C77.8867 88.711 78.8306 88.3209 79.5267 87.6273C80.2228 86.9338 80.6144 85.9934 80.6155 85.0125V45.9252C80.6144 44.9443 80.2229 44.004 79.5267 43.3104C78.8306 42.6168 77.8868 42.2267 76.9023 42.2256Z" fill="#F0604D"/>
<path id="Vector_17" d="M76.9023 42.2256H13.8909C12.9065 42.2267 11.9626 42.6168 11.2665 43.3104C10.5704 44.004 10.1788 44.9443 10.1777 45.9252V85.0125C10.1789 85.9934 10.5704 86.9337 11.2665 87.6273C11.9626 88.3209 12.9065 88.711 13.8909 88.7121H76.9023C77.8867 88.711 78.8306 88.3209 79.5267 87.6273C80.2228 86.9338 80.6144 85.9934 80.6155 85.0125V45.9252C80.6144 44.9443 80.2229 44.004 79.5267 43.3104C78.8306 42.6168 77.8868 42.2267 76.9023 42.2256ZM78.1209 70.3025C78.1058 74.2818 76.526 78.0967 73.7204 80.9289C70.9148 83.761 67.1068 85.3848 63.1134 85.4517C56.7198 85.5347 66.651 85.567 58.9398 85.567C41.3068 85.567 22.9204 85.3991 16.0602 85.2903C15.1576 85.2717 14.2981 84.9023 13.6651 84.261C13.0321 83.6197 12.6758 82.7572 12.6724 81.8577V45.9281C12.6727 45.606 12.8011 45.2972 13.0294 45.0691C13.2577 44.8411 13.5674 44.7124 13.8907 44.7113H76.8998C77.223 44.7116 77.5329 44.8395 77.7617 45.0669C77.9906 45.2944 78.1197 45.6028 78.1209 45.9248V70.3025Z" fill="#010230"/>
<path id="Vector_18" d="M69.1458 19.7178H21.1377C20.7129 19.7184 20.2987 19.8496 19.9516 20.0935C19.6044 20.3374 19.3413 20.6821 19.1981 21.0805L11.7836 41.8064C11.6729 42.1158 11.6384 42.4471 11.683 42.7725C11.7275 43.0979 11.8498 43.4079 12.0396 43.6764C12.2293 43.9449 12.481 44.1641 12.7735 44.3156C13.066 44.4671 13.3907 44.5464 13.7203 44.5469L78.107 44.6607H78.1098C78.4506 44.6607 78.786 44.5764 79.086 44.4155C79.386 44.2545 79.6413 44.0219 79.8288 43.7385C80.0164 43.455 80.1305 43.1297 80.1608 42.7915C80.1911 42.4534 80.1367 42.113 80.0025 41.8009L79.8902 41.8488L80.0025 41.8009L71.0384 20.9612C70.8799 20.592 70.616 20.2773 70.2796 20.0562C69.9431 19.8351 69.5488 19.7175 69.1458 19.7178Z" fill="#010230"/>
<path id="Vector_19" d="M80.1693 42.251C80.1691 42.5289 80.1124 42.8039 80.0026 43.0594L71.0391 59.1012C70.8795 59.4696 70.6152 59.7835 70.2789 60.0042C69.9425 60.2249 69.5487 60.3428 69.146 60.3433H21.1386C20.7137 60.3429 20.2992 60.2118 19.9518 59.9681C19.6044 59.7243 19.3409 59.3797 19.1973 58.9812L11.7842 43.0538C11.6934 42.8001 11.6536 42.531 11.6671 42.2619C11.6807 41.9928 11.7474 41.7291 11.8633 41.4857C11.9793 41.2423 12.1422 41.0241 12.3429 40.8434C12.5435 40.6628 12.7779 40.5234 13.0327 40.4331C13.2531 40.3538 13.4856 40.3132 13.7199 40.3132L21.585 40.2984L24.7951 40.2929L67.0361 40.219L70.2481 40.2135L78.1076 40.1987H78.1095C78.6558 40.1988 79.1796 40.4151 79.5659 40.7999C79.9522 41.1848 80.1692 41.7067 80.1693 42.251Z" fill="#010230"/>
<path id="Vector_20" d="M18.6148 71.5454C19.5668 71.5454 32.6397 72.3414 32.6397 73.29C32.6397 74.2385 19.5668 74.9803 18.6148 74.9803C18.1577 74.9803 17.7192 74.7993 17.396 74.4772C17.0727 74.1552 16.8911 73.7183 16.8911 73.2628C16.8911 72.8073 17.0727 72.3705 17.396 72.0484C17.7192 71.7264 18.1577 71.5454 18.6148 71.5454Z" fill="#010230"/>
<path id="Vector_21" d="M66.1562 7.10938H25.6768C24.592 7.11062 23.5519 7.54055 22.7848 8.30485C22.0177 9.06914 21.5862 10.1054 21.585 11.1863V60.3434H69.1459C69.5365 60.3447 69.9191 60.2338 70.2481 60.0242V11.1863C70.2468 10.1054 69.8153 9.06915 69.0482 8.30485C68.2811 7.54056 67.2411 7.11063 66.1562 7.10938Z" fill="#E6E6E6"/>
<path id="Vector_22" d="M50.7056 10.4148H28.5219C27.534 10.4158 26.5869 10.807 25.8882 11.5028C25.1896 12.1986 24.7964 13.1421 24.7949 14.1263V60.3434H67.0359V26.6855C67.0309 22.3718 65.3088 18.2361 62.2474 15.1859C59.1859 12.1356 55.0351 10.4198 50.7056 10.4148Z" fill="white"/>
<path id="Vector_23" d="M59.8399 56.2388H31.9916C31.7509 56.2388 31.52 56.334 31.3498 56.5036C31.1796 56.6732 31.084 56.9033 31.084 57.1431C31.084 57.383 31.1796 57.613 31.3498 57.7826C31.52 57.9522 31.7509 58.0474 31.9916 58.0474H59.8399C60.0806 58.0474 60.3115 57.9522 60.4817 57.7826C60.6519 57.613 60.7475 57.383 60.7475 57.1431C60.7475 56.9033 60.6519 56.6732 60.4817 56.5036C60.3115 56.334 60.0806 56.2388 59.8399 56.2388Z" fill="#E4E4E4"/>
<path id="Vector_24" d="M59.8398 52.6621H31.9916C31.7506 52.6621 31.5195 52.7575 31.3491 52.9273C31.1787 53.097 31.083 53.3273 31.083 53.5674C31.083 53.8075 31.1787 54.0377 31.3491 54.2075C31.5195 54.3773 31.7506 54.4726 31.9916 54.4726H59.8398C60.0808 54.4726 60.3119 54.3773 60.4823 54.2075C60.6527 54.0377 60.7484 53.8075 60.7484 53.5674C60.7484 53.3273 60.6527 53.097 60.4823 52.9273C60.3119 52.7575 60.0808 52.6621 59.8398 52.6621Z" fill="#E4E4E4"/>
<path id="Vector_25" d="M44.0634 49.0872H31.9916C31.7509 49.0872 31.52 49.1824 31.3498 49.352C31.1796 49.5216 31.084 49.7516 31.084 49.9915C31.084 50.2313 31.1796 50.4614 31.3498 50.631C31.52 50.8005 31.7509 50.8958 31.9916 50.8958H44.0634C44.3041 50.8958 44.535 50.8005 44.7052 50.631C44.8754 50.4614 44.971 50.2313 44.971 49.9915C44.971 49.7516 44.8754 49.5216 44.7052 49.352C44.535 49.1824 44.3041 49.0872 44.0634 49.0872Z" fill="#E4E4E4"/>
<path id="Vector_26" d="M59.8398 41.5977H31.9916C31.7506 41.5977 31.5195 41.693 31.3491 41.8628C31.1787 42.0326 31.083 42.2628 31.083 42.5029C31.083 42.743 31.1787 42.9733 31.3491 43.143C31.5195 43.3128 31.7506 43.4082 31.9916 43.4082H59.8398C60.0808 43.4082 60.3119 43.3128 60.4823 43.143C60.6527 42.9733 60.7484 42.743 60.7484 42.5029C60.7484 42.2628 60.6527 42.0326 60.4823 41.8628C60.3119 41.693 60.0808 41.5977 59.8398 41.5977Z" fill="#E4E4E4"/>
<path id="Vector_27" d="M59.8399 38.0229H31.9916C31.7509 38.0229 31.52 38.1182 31.3498 38.2878C31.1796 38.4574 31.084 38.6874 31.084 38.9273C31.084 39.1671 31.1796 39.3971 31.3498 39.5667C31.52 39.7363 31.7509 39.8316 31.9916 39.8316H59.8399C60.0806 39.8316 60.3115 39.7363 60.4817 39.5667C60.6519 39.3971 60.7475 39.1671 60.7475 38.9273C60.7475 38.6874 60.6519 38.4574 60.4817 38.2878C60.3115 38.1182 60.0806 38.0229 59.8399 38.0229Z" fill="#E4E4E4"/>
<path id="Vector_28" d="M44.0634 34.446H31.9916C31.7506 34.446 31.5195 34.5414 31.3491 34.7112C31.1787 34.881 31.083 35.1112 31.083 35.3513C31.083 35.5914 31.1787 35.8216 31.3491 35.9914C31.5195 36.1612 31.7506 36.2566 31.9916 36.2566H44.0634C44.3043 36.2566 44.5354 36.1612 44.7058 35.9914C44.8762 35.8216 44.9719 35.5914 44.9719 35.3513C44.9719 35.1112 44.8762 34.881 44.7058 34.7112C44.5354 34.5414 44.3043 34.446 44.0634 34.446Z" fill="#E4E4E4"/>
<path id="Vector_29" d="M59.8398 26.9568H31.9916C31.7506 26.9568 31.5195 27.0522 31.3491 27.2219C31.1787 27.3917 31.083 27.622 31.083 27.862C31.083 28.1021 31.1787 28.3324 31.3491 28.5022C31.5195 28.6719 31.7506 28.7673 31.9916 28.7673H59.8398C60.0808 28.7673 60.3119 28.6719 60.4823 28.5022C60.6527 28.3324 60.7484 28.1021 60.7484 27.862C60.7484 27.622 60.6527 27.3917 60.4823 27.2219C60.3119 27.0522 60.0808 26.9568 59.8398 26.9568Z" fill="#010230"/>
<path id="Vector_30" d="M59.8398 23.3818H31.9916C31.7506 23.3818 31.5195 23.4772 31.3491 23.647C31.1787 23.8168 31.083 24.047 31.083 24.2871C31.083 24.5272 31.1787 24.7574 31.3491 24.9272C31.5195 25.097 31.7506 25.1924 31.9916 25.1924H59.8398C60.0808 25.1924 60.3119 25.097 60.4823 24.9272C60.6527 24.7574 60.7484 24.5272 60.7484 24.2871C60.7484 24.047 60.6527 23.8168 60.4823 23.647C60.3119 23.4772 60.0808 23.3818 59.8398 23.3818Z" fill="#010230"/>
<path id="Vector_31" d="M44.0634 19.8052H31.9916C31.7506 19.8052 31.5195 19.9006 31.3491 20.0703C31.1787 20.2401 31.083 20.4703 31.083 20.7104C31.083 20.9505 31.1787 21.1808 31.3491 21.3506C31.5195 21.5203 31.7506 21.6157 31.9916 21.6157H44.0634C44.3043 21.6157 44.5354 21.5203 44.7058 21.3506C44.8762 21.1808 44.9719 20.9505 44.9719 20.7104C44.9719 20.4703 44.8762 20.2401 44.7058 20.0703C44.5354 19.9006 44.3043 19.8052 44.0634 19.8052Z" fill="#010230"/>
<path id="Vector_32" d="M68.7307 14.0865C72.6349 14.0865 75.7998 10.9332 75.7998 7.04328C75.7998 3.15338 72.6349 0 68.7307 0C64.8266 0 61.6616 3.15338 61.6616 7.04328C61.6616 10.9332 64.8266 14.0865 68.7307 14.0865Z" fill="#F0604D"/>
<path id="Vector_33" d="M67.7659 10.709C67.6438 10.709 67.5234 10.6806 67.4143 10.6262C67.3051 10.5718 67.2101 10.4928 67.1369 10.3955L65.2084 7.83345C65.1461 7.75117 65.1007 7.65745 65.0748 7.55766C65.0489 7.45787 65.0431 7.35397 65.0576 7.25192C65.0721 7.14988 65.1066 7.05168 65.1593 6.96296C65.2119 6.87424 65.2816 6.79674 65.3644 6.73491C65.4471 6.67307 65.5413 6.62811 65.6415 6.6026C65.7418 6.5771 65.846 6.57154 65.9484 6.58626C66.0508 6.60098 66.1493 6.63568 66.2382 6.68838C66.3271 6.74107 66.4047 6.81073 66.4665 6.89335L67.7282 8.56939L70.9688 3.72633C71.0845 3.55343 71.2644 3.43341 71.4689 3.39266C71.6734 3.35191 71.8858 3.39377 72.0593 3.50903C72.2328 3.62429 72.3533 3.80352 72.3942 4.00727C72.4351 4.21103 72.3931 4.42263 72.2774 4.59552L68.4203 10.3601C68.3505 10.4643 68.2566 10.5504 68.1466 10.611C68.0366 10.6717 67.9135 10.7052 67.7878 10.7087C67.7805 10.7088 67.7732 10.709 67.7659 10.709Z" fill="white"/>
</g>
<defs>
<clipPath id="clip0_926_202">
<rect width="125" height="109" fill="white"/>
</clipPath>
</defs>
</svg>
