<svg width="139" height="117" viewBox="0 0 139 117" fill="none" xmlns="http://www.w3.org/2000/svg">
<g id="undraw_message_sent_re_q2kl 1" clip-path="url(#clip0_926_245)">
<path id="Vector" d="M6.70698 39.8699L0.00475162 36.2393C-0.0856542 32.355 0.811206 28.5081 2.61746 25.0327C4.16269 31.7779 12.2947 34.9871 16.0467 40.8765C17.2023 42.722 17.9113 44.7939 18.1211 46.9388C18.3309 49.0836 18.0362 51.2463 17.2588 53.2667L17.6996 58.4965C14.2356 57.4987 11.0378 55.7905 8.32636 53.4895C5.61494 51.1886 3.45441 48.3497 1.99362 45.1684C1.19251 43.3759 0.629288 41.4935 0.317256 39.5657C3.44213 39.8855 6.70698 39.8699 6.70698 39.8699Z" fill="#F2F2F2"/>
<path id="Vector_2" d="M127.191 105.92L127.397 101.476C129.539 100.375 131.929 99.7929 134.358 99.7812C131.014 102.41 131.432 107.478 129.166 111.013C128.45 112.111 127.486 113.039 126.347 113.73C125.207 114.42 123.921 114.855 122.583 115.003L119.785 116.65C119.401 114.592 119.485 112.478 120.033 110.454C120.58 108.43 121.577 106.544 122.955 104.927C123.738 104.027 124.635 103.225 125.626 102.541C126.296 104.24 127.191 105.92 127.191 105.92Z" fill="#E6E6E6"/>
<path id="Vector_3" d="M119.982 114.363L117.448 114.363L116.243 104.965L119.982 104.965L119.982 114.363Z" fill="#FFB6B6"/>
<path id="Vector_4" d="M120.628 116.725L112.459 116.725V116.625C112.459 115.814 112.794 115.037 113.39 114.463C113.987 113.89 114.795 113.568 115.639 113.567H115.639L117.131 112.479L119.915 113.568L120.628 113.568L120.628 116.725Z" fill="#2F2E41"/>
<path id="Vector_5" d="M108.212 114.363L105.678 114.363L104.473 104.965L108.212 104.965L108.212 114.363Z" fill="#FFB6B6"/>
<path id="Vector_6" d="M108.858 116.725L100.689 116.725V116.625C100.69 115.814 101.025 115.037 101.621 114.463C102.217 113.89 103.026 113.568 103.869 113.567H103.869L105.361 112.479L108.145 113.568L108.858 113.568L108.858 116.725Z" fill="#2F2E41"/>
<path id="Vector_7" d="M107.115 62.9832L123.594 63.3794C126.724 65.0142 126.771 68.5526 125.746 72.7537C125.746 72.7537 126.092 75.2507 125.399 75.9165C124.707 76.5824 124.361 76.5824 124.707 77.7477C125.053 78.9129 123.224 80.8162 123.446 81.0298C123.669 81.2435 124.188 82.4087 124.188 82.4087L122.457 91.8973C122.457 91.8973 121.245 108.377 120.899 108.71C120.553 109.043 120.207 108.71 120.553 109.543C120.899 110.375 121.245 110.042 120.899 110.375C120.593 110.693 120.304 111.026 120.034 111.374H115.849C115.849 111.374 115.534 109.709 115.534 109.543C115.534 109.376 115.187 108.377 115.187 108.211C115.187 108.045 115.493 107.75 115.493 107.75C115.599 107.412 115.671 107.064 115.707 106.713C115.707 106.38 116.745 93.562 116.745 93.562L114.668 76.9153L109.649 93.229C109.649 93.229 109.649 107.545 109.302 107.878C108.956 108.211 108.956 108.045 109.129 108.71C109.302 109.376 109.995 109.21 109.476 109.709C108.956 110.209 108.783 109.376 108.956 110.209L109.129 111.041L103.937 111.112C103.937 111.112 103.244 109.709 103.591 109.21C103.937 108.71 103.916 108.847 103.494 108.029C103.071 107.212 102.898 107.046 103.071 106.879C103.244 106.713 103.244 105.827 103.244 105.827L104.11 89.8997C104.11 89.8997 104.283 73.0866 104.283 72.5872C104.296 72.3302 104.247 72.0739 104.139 71.8383V71.1605L104.802 68.7585L107.115 62.9832Z" fill="#69687F"/>
<path id="Vector_8" d="M117.014 30.0292C119.842 30.0292 122.134 27.8246 122.134 25.1051C122.134 22.3855 119.842 20.1809 117.014 20.1809C114.187 20.1809 111.895 22.3855 111.895 25.1051C111.895 27.8246 114.187 30.0292 117.014 30.0292Z" fill="#FFB6B6"/>
<path id="Vector_9" d="M114.454 33.2837C113.351 33.9144 112.691 35.0731 112.313 36.2523C111.611 38.4354 111.189 40.6925 111.056 42.9738L110.655 49.8035L105.701 64.3458C109.995 67.8404 126.136 65.1401 126.136 65.1401C126.136 65.1401 126.631 64.9812 126.136 64.5047C125.64 64.0281 125.158 64.4503 125.654 63.9738C126.149 63.4973 125.808 64.0281 125.642 63.5516C125.477 63.0751 125.642 63.3928 125.808 63.2339C125.973 63.0751 124.529 61.6455 124.529 61.6455L125.85 53.298L127.502 36.4605C125.52 34.0779 121.534 32.6733 121.534 32.6733L120.504 30.8904L115.355 31.2866L114.454 33.2837Z" fill="#010230"/>
<path id="Vector_10" d="M113.752 22.2151C113.95 22.2166 114.147 22.2415 114.339 22.2892C114.717 22.3766 115.101 22.4385 115.488 22.4745C116.673 22.5818 117.787 23.0679 118.651 23.8553C119.516 24.6428 120.081 25.686 120.256 26.8185C120.554 26.569 121.231 26.1101 121.786 26.5366C121.794 26.5434 121.799 26.5469 121.818 26.538C122.187 26.3699 122.841 24.3004 122.861 22.4783C122.871 21.5112 122.713 20.2762 121.9 19.8852L121.857 19.8645L121.846 19.8198C121.791 19.6022 121.184 19.2309 120.129 18.9418C118.212 18.4166 115.354 17.3934 113.744 18.8992C113.622 19.4068 113.226 20.4932 112.826 20.6163C112.383 20.7526 112 20.8703 111.94 21.3932C111.889 22.1373 111.893 22.884 111.95 23.6276C112.101 23.1726 112.396 22.7743 112.793 22.4888C113.076 22.3056 113.411 22.2101 113.752 22.2151Z" fill="#2F2E41"/>
<path id="Vector_11" d="M104.222 49.4234L112.586 44.272L108.373 38.8865L104.214 43.8074L91.2537 44.5719C90.9128 44.2478 90.4813 44.0261 90.0117 43.9338C89.542 43.8416 89.0547 43.8827 88.6089 44.0522C88.1632 44.2218 87.7784 44.5124 87.5015 44.8886C87.2245 45.2648 87.0673 45.7104 87.0491 46.1711C87.031 46.6317 87.1525 47.0875 87.399 47.4829C87.6455 47.8782 88.0063 48.1961 88.4373 48.3976C88.8684 48.5992 89.3511 48.6758 89.8267 48.6181C90.3022 48.5603 90.75 48.3708 91.1154 48.0725L104.222 49.4234Z" fill="#FFB6B6"/>
<path id="Vector_12" d="M120.348 37.0815C120.834 39.9068 111.667 45.302 111.667 45.302C111.667 44.6388 106.196 49.6451 105.949 49.0951C105.247 47.532 104.754 43.8297 103.773 43.2371C103.212 42.8983 107.151 39.7147 107.151 39.7147C107.151 39.7147 109.213 37.7171 111.918 35.1973C112.67 34.4713 113.599 33.9399 114.622 33.6525C115.644 33.3652 116.725 33.3312 117.765 33.5538C117.765 33.5538 119.863 34.2563 120.348 37.0815Z" fill="#010230"/>
<path id="Vector_13" d="M137.587 50.7755L132.055 42.8428L126.545 47.0072L131.749 50.9026L132.818 63.348C132.488 63.6827 132.267 64.1023 132.181 64.5558C132.095 65.0093 132.148 65.4771 132.334 65.9021C132.52 66.3271 132.83 66.6909 133.227 66.9492C133.624 67.2076 134.09 67.3493 134.57 67.357C135.049 67.3647 135.52 67.2382 135.926 66.9928C136.332 66.7474 136.654 66.3938 136.855 65.9751C137.055 65.5563 137.124 65.0905 137.054 64.6345C136.984 64.1785 136.778 63.7519 136.46 63.4068L137.587 50.7755Z" fill="#FFB6B6"/>
<path id="Vector_14" d="M124.416 35.531C127.343 35.0045 133.145 43.7043 133.145 43.7043C132.456 43.7185 137.776 48.8732 137.209 49.1223C135.599 49.8302 131.761 50.3831 131.166 51.3387C130.825 51.8852 127.433 48.1653 127.433 48.1653C127.433 48.1653 125.312 46.2251 122.636 43.6768C121.865 42.9699 121.293 42.087 120.973 41.1102C120.652 40.1334 120.594 39.0945 120.803 38.0903C120.803 38.0903 121.489 36.0576 124.416 35.531Z" fill="#010230"/>
<path id="Vector_15" d="M139 116.764C139 116.795 138.994 116.826 138.982 116.855C138.969 116.883 138.951 116.909 138.929 116.931C138.906 116.953 138.879 116.971 138.849 116.982C138.819 116.994 138.787 117 138.755 117H81.0205C80.9555 117 80.8931 116.975 80.8472 116.931C80.8012 116.887 80.7754 116.827 80.7754 116.764C80.7754 116.702 80.8012 116.642 80.8472 116.598C80.8931 116.553 80.9555 116.529 81.0205 116.529H138.755C138.787 116.528 138.819 116.535 138.849 116.546C138.879 116.558 138.906 116.576 138.929 116.597C138.951 116.619 138.969 116.645 138.982 116.674C138.994 116.703 139 116.733 139 116.764Z" fill="#010230"/>
<path id="Vector_16" d="M85.5157 45.3247H15.4469C14.3522 45.3259 13.3027 45.7447 12.5286 46.4891C11.7545 47.2336 11.3191 48.243 11.3179 49.2959V91.252C11.3191 92.3048 11.7545 93.3142 12.5286 94.0587C13.3027 94.8031 14.3522 95.2219 15.4469 95.2231H85.5156C86.6103 95.2219 87.6599 94.8032 88.434 94.0587C89.208 93.3142 89.6435 92.3048 89.6447 91.252V49.2959C89.6435 48.243 89.2081 47.2336 88.434 46.4891C87.6599 45.7447 86.6104 45.3259 85.5157 45.3247Z" fill="#F0604D"/>
<path id="Vector_17" d="M85.5157 45.3247H15.4469C14.3522 45.3259 13.3027 45.7447 12.5286 46.4891C11.7545 47.2336 11.3191 48.243 11.3179 49.2959V91.252C11.3191 92.3048 11.7545 93.3142 12.5286 94.0587C13.3027 94.8031 14.3522 95.2219 15.4469 95.2231H85.5156C86.6103 95.2219 87.6599 94.8032 88.434 94.0587C89.208 93.3142 89.6435 92.3048 89.6447 91.252V49.2959C89.6435 48.243 89.2081 47.2336 88.434 46.4891C87.6599 45.7447 86.6104 45.3259 85.5157 45.3247ZM86.8707 75.4623C86.854 79.7337 85.0972 83.8286 81.9773 86.8686C78.8575 89.9086 74.623 91.6515 70.1824 91.7234C63.0726 91.8124 74.1162 91.8471 65.5413 91.8471C45.9334 91.8471 25.4877 91.6669 17.8592 91.5501C16.8555 91.5302 15.8997 91.1337 15.1958 90.4453C14.4919 89.7569 14.0958 88.8311 14.0919 87.8656V49.299C14.0923 48.9532 14.235 48.6217 14.4889 48.3769C14.7428 48.1322 15.0872 47.994 15.4466 47.9928H85.5128C85.8722 47.9932 86.2169 48.1305 86.4713 48.3746C86.7258 48.6187 86.8694 48.9498 86.8707 49.2955V75.4623Z" fill="#010230"/>
<path id="Vector_18" d="M76.8903 21.165H23.5054C23.033 21.1657 22.5724 21.3065 22.1864 21.5683C21.8004 21.8301 21.5078 22.2001 21.3485 22.6278L13.1036 44.8749C12.9805 45.2069 12.9422 45.5625 12.9917 45.9118C13.0412 46.2611 13.1772 46.5939 13.3883 46.8821C13.5993 47.1703 13.8792 47.4056 14.2044 47.5682C14.5296 47.7308 14.8907 47.8159 15.2572 47.8164L86.8552 47.9387H86.8584C87.2373 47.9386 87.6103 47.8482 87.9439 47.6754C88.2775 47.5026 88.5613 47.253 88.7699 46.9487C88.9785 46.6445 89.1053 46.2952 89.139 45.9323C89.1727 45.5693 89.1122 45.2039 88.963 44.869L88.8381 44.9204L88.963 44.869L78.9949 22.4997C78.8187 22.1034 78.5253 21.7656 78.1511 21.5283C77.7769 21.291 77.3385 21.1647 76.8903 21.165Z" fill="#010230"/>
<path id="Vector_19" d="M89.1485 45.3521C89.1483 45.6504 89.0852 45.9456 88.9631 46.2198L78.9957 63.439C78.8182 63.8344 78.5244 64.1714 78.1503 64.4083C77.7763 64.6451 77.3384 64.7717 76.8905 64.7722H23.5063C23.0338 64.7718 22.573 64.6311 22.1866 64.3695C21.8003 64.1078 21.5073 63.7379 21.3476 63.3102L13.1043 46.2138C13.0032 45.9415 12.959 45.6526 12.9741 45.3638C12.9892 45.075 13.0633 44.7918 13.1922 44.5306C13.3212 44.2693 13.5024 44.0351 13.7255 43.8412C13.9486 43.6473 14.2093 43.4977 14.4926 43.4008C14.7376 43.3157 14.9962 43.2721 15.2568 43.272L24.0027 43.2561L27.5724 43.2502L74.5444 43.171L78.1161 43.165L86.8559 43.1492H86.858C87.4654 43.1493 88.048 43.3814 88.4775 43.7945C88.907 44.2076 89.1484 44.7679 89.1485 45.3521Z" fill="#010230"/>
<path id="Vector_20" d="M20.7 76.7966C21.7586 76.7966 36.2957 77.6511 36.2957 78.6692C36.2957 79.6873 21.7586 80.4836 20.7 80.4836C20.1916 80.4836 19.7041 80.2894 19.3446 79.9437C18.9851 79.5979 18.7832 79.129 18.7832 78.6401C18.7832 78.1512 18.9851 77.6823 19.3446 77.3366C19.7041 76.9909 20.1916 76.7966 20.7 76.7966Z" fill="#010230"/>
<path id="Vector_21" d="M66.542 60.3665H35.5747C35.3071 60.3665 35.0503 60.4687 34.8611 60.6508C34.6718 60.8328 34.5654 61.0797 34.5654 61.3372C34.5654 61.5946 34.6718 61.8415 34.8611 62.0236C35.0503 62.2056 35.3071 62.3079 35.5747 62.3079H66.542C66.8097 62.3079 67.0664 62.2056 67.2557 62.0236C67.445 61.8415 67.5513 61.5946 67.5513 61.3372C67.5513 61.0797 67.445 60.8328 67.2557 60.6508C67.0664 60.4687 66.8097 60.3665 66.542 60.3665Z" fill="#E4E4E4"/>
<path id="Vector_22" d="M50.7443 75.892C50.5715 75.8922 50.4003 75.8596 50.2403 75.7962L21.8555 64.3687V28.5986C21.8558 28.2823 21.9855 27.979 22.216 27.7554C22.4465 27.5317 22.7591 27.4059 23.0851 27.4055H77.5392C77.8652 27.4059 78.1778 27.5317 78.4083 27.7554C78.6388 27.979 78.7685 28.2823 78.7689 28.5986V64.3936L78.7155 64.4158L51.2635 75.7906C51.0991 75.8577 50.9226 75.8921 50.7443 75.892Z" fill="white"/>
<path id="Vector_23" d="M50.7042 64.2179C58.4293 64.2179 64.6916 58.1132 64.6916 50.5826C64.6916 43.052 58.4293 36.9473 50.7042 36.9473C42.9792 36.9473 36.7168 43.052 36.7168 50.5826C36.7168 58.1132 42.9792 64.2179 50.7042 64.2179Z" fill="#F0604D"/>
<path id="Vector_24" d="M48.8726 58.0601C48.6406 58.0601 48.4117 58.0057 48.2042 57.9012C47.9967 57.7968 47.8163 57.6451 47.6771 57.4583L44.0118 52.5396C43.8934 52.3816 43.8071 52.2017 43.758 52.0101C43.7088 51.8185 43.6976 51.6191 43.7252 51.4232C43.7527 51.2273 43.8184 51.0387 43.9185 50.8684C44.0185 50.6981 44.151 50.5493 44.3083 50.4306C44.4656 50.3119 44.6446 50.2256 44.8351 50.1766C45.0255 50.1276 45.2237 50.117 45.4183 50.1452C45.6129 50.1735 45.8001 50.2401 45.969 50.3413C46.138 50.4424 46.2854 50.5762 46.403 50.7348L48.8009 53.9525L54.9599 44.6547C55.1797 44.3227 55.5216 44.0923 55.9103 44.0141C56.2989 43.9358 56.7026 44.0162 57.0324 44.2375C57.3622 44.4588 57.5911 44.8028 57.6688 45.194C57.7466 45.5852 57.6667 45.9914 57.4469 46.3234L50.1162 57.3902C49.9836 57.5904 49.8052 57.7556 49.5961 57.8721C49.3869 57.9885 49.1531 58.0528 48.9142 58.0596C48.9003 58.0598 48.8865 58.0601 48.8726 58.0601Z" fill="white"/>
</g>
<defs>
<clipPath id="clip0_926_245">
<rect width="139" height="117" fill="white"/>
</clipPath>
</defs>
</svg>
